<svg width="22" height="24" viewBox="0 0 22 24" fill="none" xmlns="http://www.w3.org/2000/svg">
<path d="M2.44638 13.068C2.44638 9.90239 4.16718 7.13759 6.72318 5.65919V3.26399C2.94798 4.91519 0.307983 8.68559 0.307983 13.068C0.307983 18.9744 5.09598 23.76 11 23.76C16.904 23.76 21.692 18.9744 21.692 13.068C21.692 8.68319 19.052 4.91279 15.2768 3.26399V5.65919C17.8328 7.13759 19.5536 9.90239 19.5536 13.068C19.5536 17.7912 15.7256 21.6216 11 21.6216C6.27438 21.6216 2.44638 17.7936 2.44638 13.068ZM11 0.23999C9.81918 0.23999 8.86158 1.19759 8.86158 2.37839V10.932C8.86158 12.1128 9.81918 13.0704 11 13.0704C12.1808 13.0704 13.1384 12.1128 13.1384 10.932V2.37839C13.1384 1.19759 12.1808 0.23999 11 0.23999Z" fill="white"/>
</svg>
